<svg xmlns="http://www.w3.org/2000/svg" viewBox="0 0 240 240" role="img" aria-labelledby="hc-v2-kettle-export-kettle-1hhhtus-title" focusable="false" data-hc-primitive="kettle" data-hc-id-scope="hc-v2-kettle-export-kettle-1hhhtus">
    <title id="hc-v2-kettle-export-kettle-1hhhtus-title">kettle</title>
    <defs><pattern id="hc-v2-kettle-export-kettle-1hhhtus-halftoneFine" width="6" height="6" patternUnits="userSpaceOnUse"><circle cx="1.5" cy="1.5" r="0.8" fill="var(--hc-art-ink)" opacity="0.22" /></pattern></defs>
    
    <g data-hc-layer="body"><ellipse cx="120" cy="222" rx="83" ry="6" fill="var(--hc-art-ink)" opacity=".13"/><path d="M92 80 Q70 35 111 31 Q155 29 154 84" fill="none" stroke="var(--hc-art-ink)" stroke-width="12" stroke-linecap="round" stroke-linejoin="round"/><path d="M85 85 H153 Q173 97 177 151 L164 207 H70 L59 152 Q59 105 85 85 Z" fill="var(--hc-art-turquoise)" stroke="var(--hc-art-ink)" stroke-width="7" stroke-linejoin="round" stroke-linecap="round"/><path d="M60 113 L34 95 L33 83 L66 94" fill="var(--hc-art-mustard)" stroke="var(--hc-art-ink)" stroke-width="5" stroke-linejoin="round" stroke-linecap="round"/><path d="M169 110 Q215 107 210 155 Q205 184 172 171" stroke="var(--hc-art-ink)" stroke-width="10" stroke-linejoin="round" stroke-linecap="round" fill="none"/><path d="M72 183 H164 V202 H72 Z" fill="url(#hc-v2-kettle-export-kettle-1hhhtus-halftoneFine)" opacity=".7"/><rect x="88" y="74" width="66" height="13" rx="5" fill="var(--hc-art-surface)" stroke="var(--hc-art-ink)" stroke-width="4" stroke-linejoin="round" stroke-linecap="round"/></g>
    
  </svg>