<svg xmlns="http://www.w3.org/2000/svg" viewBox="0 0 240 240" role="img" aria-labelledby="hc-v2-sink-export-sink-1iqv8ec-title" focusable="false" data-hc-primitive="sink" data-hc-id-scope="hc-v2-sink-export-sink-1iqv8ec">
    <title id="hc-v2-sink-export-sink-1iqv8ec-title">sink</title>
    <defs><pattern id="hc-v2-sink-export-sink-1iqv8ec-halftoneMedium" width="10" height="10" patternUnits="userSpaceOnUse"><circle cx="2.5" cy="2.5" r="1.45" fill="var(--hc-art-ink)" opacity="0.2" /></pattern></defs>
    <g aria-hidden="true" transform="translate(-0.9 0.4)" fill="var(--hc-art-coral)" stroke="var(--hc-art-coral)" opacity="0.16"><path d="M28 123 H212 L184 209 H57 Z"/></g>
    <g data-hc-layer="body"><ellipse cx="120" cy="222" rx="82" ry="9" fill="var(--hc-art-ink)" opacity=".12"/><path d="M96 118 V66 Q96 39 122 39 Q148 39 148 65 V106" fill="none" stroke="var(--hc-art-ink)" stroke-width="12" stroke-linecap="round" stroke-linejoin="round"/><path d="M139 105 H164" stroke="var(--hc-art-ink)" stroke-width="9" stroke-linecap="round" stroke-linejoin="round" fill="none"/><rect x="111" y="116" width="16" height="11" rx="3" fill="var(--hc-art-mustard)"/><path d="M26 129 H214 L192 205 Q187 214 178 214 H63 Q54 214 49 205 Z" fill="var(--hc-art-surface)" stroke="var(--hc-art-ink)" stroke-width="6" stroke-linecap="round" stroke-linejoin="round"/><path d="M49 137 H191 L177 192 H66 Z" fill="var(--hc-art-primary-soft)" stroke="var(--hc-art-ink)" stroke-width="4"/><path d="M51 189 H190 V206 H56 Z" fill="url(#hc-v2-sink-export-sink-1iqv8ec-halftoneMedium)"/><path d="M18 127 H222" stroke="var(--hc-art-ink)" stroke-width="9" stroke-linecap="round" stroke-linejoin="round" fill="none"/><circle cx="84" cy="101" r="9" fill="var(--hc-art-coral)" stroke="var(--hc-art-ink)" stroke-width="3" stroke-linecap="round" stroke-linejoin="round"/><circle cx="176" cy="101" r="9" fill="var(--hc-art-turquoise)" stroke="var(--hc-art-ink)" stroke-width="3" stroke-linecap="round" stroke-linejoin="round"/></g>
    
  </svg>